<svg viewBox="0 0 50 50" xmlns="http://www.w3.org/2000/svg" xmlns:xlink="http://www.w3.org/1999/xlink" width="50.000000" height="50.000000" fill="none">
	<defs>
		<linearGradient id="paint_linear_5" x1="50.1282234" x2="5.00013733" y1="0" y2="50.0224609" gradientUnits="userSpaceOnUse">
			<stop stop-color="rgb(58.5703,118.292,143.438)" offset="0.25" stop-opacity="1" />
			<stop stop-color="rgb(61.625,197.704,255)" offset="0.536458313" stop-opacity="1" />
			<stop stop-color="rgb(58.5703,118.292,143.438)" offset="0.817708313" stop-opacity="1" />
		</linearGradient>
	</defs>
	<rect id="icons8_survey 1" width="50.000000" height="50.000000" x="0.000000" y="0.000000" fill="rgb(255,255,255)" fill-opacity="0" />
	<path id="Vector" d="M17 0C16.4492 0 16 0.449219 16 1L16 9C16 9.55078 16.4492 10 17 10L33 10C33.5547 10 34 9.55078 34 9L34 1C34 0.449219 33.5547 0 33 0L17 0ZM8 2C6.34766 2 5 3.34766 5 5L5 47C5 48.6523 6.34766 50 8 50L42 50C43.6523 50 45 48.6523 45 47L45 5C45 3.34766 43.6523 2 42 2L36 2L36 6L41 6L41 46L9 46L9 6L14 6L14 2L8 2ZM11 8L11 44L39 44L39 8L36 8L36 9C36 10.6523 34.6523 12 33 12L17 12C15.3477 12 14 10.6523 14 9L14 8L11 8ZM15 17L23 17L23 25L15 25L15 17ZM17 19L17 23L21 23L21 19L17 19ZM26 20L35 20L35 22L26 22L26 20ZM15 30L23 30L23 38L15 38L15 30ZM17 32L17 36L21 36L21 32L17 32ZM18 33L20 33L20 35L18 35L18 33ZM26 33L35 33L35 35L26 35L26 33Z" fill="url(#paint_linear_5)" fill-rule="nonzero" />
</svg>
