<svg viewBox="0 0 50 50" xmlns="http://www.w3.org/2000/svg" xmlns:xlink="http://www.w3.org/1999/xlink" width="50.000000" height="50.000000" fill="none">
	<defs>
		<linearGradient id="paint_linear_4" x1="51.3846321" x2="4.00014496" y1="4" y2="46.0188675" gradientUnits="userSpaceOnUse">
			<stop stop-color="rgb(58.5703,118.292,143.438)" offset="0.25" stop-opacity="1" />
			<stop stop-color="rgb(61.625,197.704,255)" offset="0.536458313" stop-opacity="1" />
			<stop stop-color="rgb(58.5703,118.292,143.438)" offset="0.817708313" stop-opacity="1" />
		</linearGradient>
	</defs>
	<rect id="icons8_web_design 1" width="50.000000" height="50.000000" x="0.000000" y="0.000000" fill="rgb(255,255,255)" fill-opacity="0" />
	<path id="Vector" d="M5 4C4.45 4 4 4.45 4 5L4 15C4 15.55 4.45 16 5 16L45 16C45.55 16 46 15.55 46 15L46 5C46 4.45 45.55 4 45 4L5 4ZM10 9C10.55 9 11 9.45 11 10C11 10.55 10.55 11 10 11C9.45 11 9 10.55 9 10C9 9.45 9.45 9 10 9ZM14 9C14.55 9 15 9.45 15 10C15 10.55 14.55 11 14 11C13.45 11 13 10.55 13 10C13 9.45 13.45 9 14 9ZM18 9C18.55 9 19 9.45 19 10C19 10.55 18.55 11 18 11C17.45 11 17 10.55 17 10C17 9.45 17.45 9 18 9ZM4 19L4 45C4.00003 45.2652 4.10539 45.5195 4.29292 45.7071C4.48045 45.8946 4.73479 46 5 46L45 46C45.2652 46 45.5195 45.8946 45.7071 45.7071C45.8946 45.5195 46 45.2652 46 45L46 19L44 19L44 44L6 44L6 19L4 19ZM10 19C9.448 19 9 19.447 9 20L9 40C9 40.553 9.448 41 10 41L23 41C23.552 41 24 40.553 24 40L24 20C24 19.447 23.552 19 23 19L10 19ZM27 19L27 21L41 21L41 19L27 19ZM27 24L27 26L41 26L41 24L27 24ZM27 29L27 31L41 31L41 29L27 29ZM27 34L27 36L41 36L41 34L27 34ZM27 39L27 41L41 41L41 39L27 39Z" fill="url(#paint_linear_4)" fill-rule="nonzero" />
</svg>
