<svg viewBox="0 0 25 25" xmlns="http://www.w3.org/2000/svg" xmlns:xlink="http://www.w3.org/1999/xlink" width="25.000000" height="25.000000" fill="none">
	<defs>
		<linearGradient id="paint_linear_0" x1="12.504425" x2="12.504425" y1="1.48904419" y2="23.5005989" gradientUnits="userSpaceOnUse">
			<stop stop-color="rgb(74,188,236)" offset="0" stop-opacity="1" />
			<stop stop-color="rgb(74,138.8,236)" offset="1" stop-opacity="1" />
		</linearGradient>
	</defs>
	<rect id="icons8_phone_2 1" width="25.000000" height="25.000000" x="0.000000" y="0.000000" fill="rgb(255,255,255)" fill-opacity="0" />
	<path id="Vector" d="M5.92051 1.49415C5.53574 1.4629 5.10801 1.57423 4.71348 1.85157C4.36582 2.09376 3.61582 2.68946 2.91465 3.36329C2.56504 3.69923 2.23106 4.04884 1.97324 4.39259C1.71348 4.73634 1.48692 5.05079 1.50059 5.50782C1.51426 5.91798 1.55528 7.13087 2.42832 8.99024C3.30137 10.8477 4.99473 13.3965 8.29746 16.7012C11.6022 20.0059 14.151 21.6992 16.0084 22.5723C17.8658 23.4453 19.0807 23.4863 19.4908 23.5C19.9459 23.5137 20.2604 23.2871 20.6041 23.0274C20.9479 22.7676 21.2975 22.4356 21.6334 22.0859C22.3053 21.3848 22.901 20.6348 23.1432 20.2871C23.6959 19.5 23.6041 18.5703 22.9889 18.1387C22.6022 17.8672 19.0455 15.5 18.5104 15.1719C17.9674 14.8399 17.3424 14.9902 16.7838 15.2852C16.3443 15.5176 15.1549 16.1992 14.815 16.3945C14.5592 16.2324 13.5885 15.5859 11.5006 13.4981C9.41074 11.4102 8.76621 10.4395 8.6041 10.1836C8.79942 9.84376 9.4791 8.66017 9.71348 8.2129C10.0064 7.65626 10.1705 7.0254 9.8209 6.47853C9.67442 6.2461 9.0084 5.23243 8.33653 4.21485C7.6627 3.19728 7.02403 2.23243 6.85801 2.00196L6.85801 2.00001C6.64121 1.70118 6.30332 1.5254 5.92051 1.49415ZM5.82871 2.51564C5.96543 2.53321 6.04746 2.5879 6.04746 2.5879C6.12754 2.69923 6.82871 3.75001 7.50059 4.76564C8.17246 5.78321 8.85801 6.82618 8.97715 7.01564C8.99668 7.04493 9.02403 7.37696 8.82871 7.7461L8.82871 7.74806C8.60801 8.16798 7.57871 9.96681 7.57871 9.96681L7.43614 10.2188L7.58262 10.4688C7.58262 10.4688 8.3502 11.7637 10.7916 14.2051C13.235 16.6465 14.5299 17.416 14.5299 17.416L14.7799 17.5625L15.0318 17.4199C15.0318 17.4199 16.8268 16.3926 17.2506 16.1699C17.6197 15.9766 17.9518 16.002 17.9908 16.0254C18.3365 16.2383 22.1783 18.791 22.4147 18.957C22.4225 18.9629 22.6314 19.2793 22.3268 19.7129L22.3248 19.7129C22.1412 19.9766 21.5397 20.7402 20.9127 21.3926C20.5982 21.7188 20.276 22.0234 20.0025 22.2285C19.7291 22.4336 19.485 22.4981 19.524 22.5C19.0982 22.4863 18.1588 22.4766 16.4342 21.666C14.7096 20.8574 12.2486 19.2383 9.00449 15.9922C5.76231 12.75 4.14317 10.2891 3.33262 8.56251C2.52403 6.8379 2.51426 5.89845 2.50059 5.47462C2.50254 5.51368 2.567 5.26759 2.77207 4.99415C2.97715 4.72071 3.27989 4.39649 3.60606 4.08204C4.26035 3.45509 5.02207 2.85353 5.28575 2.66993L5.28575 2.67189C5.50254 2.51954 5.692 2.50001 5.82871 2.51564Z" fill="url(#paint_linear_0)" fill-rule="nonzero" />
</svg>
