<svg viewBox="0 0 31 24.5283" xmlns="http://www.w3.org/2000/svg" xmlns:xlink="http://www.w3.org/1999/xlink" width="31.000000" height="24.528320" fill="none" customFrame="#000000">
	<defs>
		<linearGradient id="paint_linear_16" x1="29.3333435" x2="8.77380371e-05" y1="0" y2="24.5393372" gradientUnits="userSpaceOnUse">
			<stop stop-color="rgb(58.5703,118.292,143.438)" offset="0.25" stop-opacity="1" />
			<stop stop-color="rgb(61.625,197.704,255)" offset="0.536458313" stop-opacity="1" />
			<stop stop-color="rgb(58.5703,118.292,143.438)" offset="0.817708313" stop-opacity="1" />
		</linearGradient>
	</defs>
	<g id="ico cacao">
		<path id="Vector" d="M13 0C5.82 0 0 5.03342 0 11.2421C0 13.9772 1.13222 16.4811 3.00977 18.4302C3.04768 18.5266 4.01101 21.0603 1.1582 23.644C1.10823 23.6919 1.06841 23.7497 1.04119 23.8139C1.01398 23.8781 0.999959 23.9473 1 24.0173C1 24.1528 1.05268 24.2828 1.14645 24.3786C1.24021 24.4745 1.36739 24.5283 1.5 24.5283C1.53613 24.5283 1.57214 24.5243 1.60742 24.5163C4.48328 24.3422 6.94346 22.8836 8.44531 21.7597C9.86471 22.2197 11.3948 22.4843 13 22.4843C20.18 22.4843 26 17.4509 26 11.2421C26 5.03342 20.18 0 13 0Z" fill="url(#paint_linear_16)" fill-rule="nonzero" />
		<path id="TALK" d="M5.352 10.3345L5.352 14.3905L3.448 14.3905L3.448 10.3345L2.056 10.3345L2.056 8.72646L6.744 8.72646L6.744 10.3345L5.352 10.3345ZM6.19231 14.3905L8.42431 8.72646L10.4483 8.72646L12.6563 14.3905L10.5843 14.3905L10.2883 13.5585L8.48831 13.5585L8.20831 14.3905L6.19231 14.3905ZM9.86431 12.1025L9.40831 10.7025L8.94431 12.1025L9.86431 12.1025ZM13.0592 14.3905L13.0592 8.72646L14.9792 8.72646L14.9792 12.7585L16.8592 12.7585L16.8592 14.3905L13.0592 14.3905ZM20.8339 14.3905L19.3219 12.1345L19.3059 12.1345L19.3059 14.3905L17.4499 14.3905L17.4499 8.72646L19.2979 8.72646L19.2979 10.8145L19.3139 10.8145L20.8259 8.72646L23.0659 8.72646L20.9379 11.3185L23.1699 14.3905L20.8339 14.3905Z" fill="rgb(8.14583,38.3775,42.5)" fill-rule="nonzero" />
	</g>
</svg>
