<svg viewBox="0 0 13.3223 30.0039" xmlns="http://www.w3.org/2000/svg" xmlns:xlink="http://www.w3.org/1999/xlink" width="13.322266" height="30.003906" fill="none" customFrame="#000000">
	<path id="Arrow 2" d="M0 -1L29 -1L29 1L0 1L0 -1ZM27.5858 0L22.636 -4.94975C22.2401 -5.34573 22.2401 -5.96798 22.636 -6.36396C23.032 -6.75994 23.6543 -6.75994 24.0503 -6.36396L29.7071 -0.707106C30.1031 -0.311126 30.1031 0.311126 29.7071 0.707106L24.0503 6.36396C23.6543 6.75994 23.032 6.75994 22.636 6.36396C22.2401 5.96798 22.2401 5.34573 22.636 4.94975L27.5858 0Z" fill="rgb(255,255,255)" fill-rule="nonzero" transform="matrix(-4.37114e-08,-1,1,-4.37114e-08,6.66113,30.0039)" />
</svg>
